<svg width="209" height="52" viewBox="0 0 209 52" fill="none" xmlns="http://www.w3.org/2000/svg">
<g filter="url(#filter0_d_8059_852)">
<path d="M42.3122 16.818H31.7847C29.4592 16.818 27.5738 14.9327 27.5738 12.6071V2.07959H19.1519V12.6071C19.1519 14.554 19.5923 16.3981 20.379 18.0451C18.732 17.2584 16.8878 16.818 14.9409 16.818H4.41345V25.2399H14.9409C17.2665 25.2399 19.1519 27.1253 19.1519 29.4509V39.9784H27.5738V29.4509C27.5738 27.504 27.1334 25.6598 26.3467 24.0128C27.9937 24.7995 29.8378 25.2399 31.7847 25.2399H42.3122V16.818Z" fill="#2563EB"/>
<path d="M42.1228 17.0334V16.952H42.0415H31.5592C29.2885 16.952 27.4477 15.1112 27.4477 12.8405V2.35819V2.27686H27.3663H18.9806H18.8992V2.35819V12.8405C18.8992 14.7117 19.3053 16.4884 20.0341 18.0869C18.4356 17.3581 16.6589 16.952 14.7877 16.952H4.30539H4.22406V17.0334V25.4191V25.5004H4.30539H14.7877C17.0584 25.5004 18.8992 27.3413 18.8992 29.612V40.0943V40.1756H18.9806H27.3663H27.4477V40.0943V29.612C27.4477 27.7408 27.0416 25.9641 26.3128 24.3656C27.9113 25.0944 29.688 25.5004 31.5592 25.5004H42.0415H42.1228V25.4191V17.0334Z" stroke="url(#paint0_linear_8059_852)" stroke-width="0.12997"/>
</g>
<path d="M53.4212 39.9674V2.37601H60.2491V33.9124H76.2647V39.9674H53.4212ZM80.8299 51.0683C80.0935 51.0683 79.3739 51.001 78.671 50.8664C77.9681 50.7655 77.3322 50.5637 76.7632 50.2609V44.761C77.1983 44.8619 77.7171 44.9628 78.3196 45.0637C78.9555 45.1646 79.5412 45.2151 80.0768 45.2151C81.5829 45.2151 82.6707 44.8619 83.3401 44.1555C84.043 43.4827 84.6622 42.5745 85.1977 41.4307L87.0051 37.1922L86.9047 42.7426L75.006 12.5181H82.085L90.4191 34.8207H87.9088L96.1928 12.5181H103.322L91.4232 42.7426C90.7203 44.4919 89.8669 45.9888 88.8627 47.2334C87.8586 48.4781 86.6872 49.42 85.3484 50.0591C84.043 50.7319 82.5368 51.0683 80.8299 51.0683ZM109.494 39.9674V18.4217H104.674V12.5181H109.494V11.6099C109.494 9.52427 109.912 7.75823 110.749 6.31176C111.619 4.83165 112.824 3.70474 114.364 2.93105C115.904 2.15736 117.728 1.77051 119.836 1.77051C120.238 1.77051 120.673 1.80415 121.142 1.87142C121.644 1.90506 122.062 1.95552 122.397 2.0228V7.72459C122.062 7.65731 121.744 7.62367 121.443 7.62367C121.175 7.59003 120.924 7.57321 120.69 7.57321C119.217 7.57321 118.079 7.9096 117.276 8.58238C116.473 9.22152 116.071 10.2307 116.071 11.6099V12.5181H122.146V18.4217H116.071V39.9674H109.494ZM138.293 40.5729C135.482 40.5729 133.022 39.9338 130.913 38.6555C128.804 37.3773 127.164 35.6448 125.993 33.4583C124.821 31.2718 124.236 28.8498 124.236 26.1923C124.236 23.4339 124.821 20.9951 125.993 18.8759C127.198 16.723 128.821 15.0242 130.863 13.7796C132.938 12.5349 135.247 11.9126 137.791 11.9126C139.933 11.9126 141.808 12.2658 143.414 12.9723C145.054 13.6787 146.443 14.6542 147.581 15.8988C148.719 17.1435 149.589 18.5731 150.192 20.1878C150.794 21.7688 151.096 23.4844 151.096 25.3345C151.096 25.8055 151.062 26.2932 150.995 26.7978C150.962 27.3024 150.878 27.7397 150.744 28.1097H129.658V23.0639H147.029L143.916 25.4355C144.217 23.8881 144.134 22.5089 143.665 21.2979C143.23 20.0869 142.494 19.1282 141.456 18.4217C140.452 17.7153 139.23 17.3621 137.791 17.3621C136.419 17.3621 135.197 17.7153 134.126 18.4217C133.055 19.0945 132.235 20.1037 131.666 21.4492C131.131 22.7612 130.93 24.359 131.064 26.2428C130.93 27.9247 131.147 29.4217 131.716 30.7336C132.319 32.0118 133.189 33.0042 134.327 33.7106C135.498 34.417 136.837 34.7702 138.343 34.7702C139.85 34.7702 141.121 34.4507 142.159 33.8115C143.23 33.1724 144.067 32.3146 144.669 31.2382L149.991 33.862C149.456 35.1739 148.619 36.3344 147.481 37.3436C146.343 38.3528 144.987 39.1433 143.414 39.7151C141.875 40.287 140.168 40.5729 138.293 40.5729ZM158.592 39.9674V32.9033H165.219V39.9674H158.592ZM182.135 40.5729C180.227 40.5729 178.57 40.2534 177.164 39.6142C175.759 38.9751 174.671 38.0668 173.901 36.8895C173.131 35.6785 172.746 34.2825 172.746 32.7014C172.746 31.1877 173.081 29.8421 173.75 28.6648C174.42 27.4538 175.457 26.4446 176.863 25.6373C178.269 24.83 180.043 24.2581 182.185 23.9217L191.122 22.4584V27.5042L183.44 28.8162C182.135 29.0516 181.164 29.4721 180.528 30.0776C179.892 30.6831 179.574 31.4736 179.574 32.4492C179.574 33.391 179.926 34.1479 180.629 34.7198C181.365 35.258 182.269 35.5271 183.34 35.5271C184.712 35.5271 185.917 35.2412 186.955 34.6693C188.026 34.0638 188.846 33.2397 189.415 32.1969C190.017 31.1541 190.318 30.0103 190.318 28.7657V21.7015C190.318 20.5242 189.85 19.5486 188.913 18.775C188.009 17.9676 186.804 17.564 185.298 17.564C183.892 17.564 182.637 17.9508 181.532 18.7245C180.461 19.4646 179.675 20.4569 179.173 21.7015L173.801 19.0777C174.336 17.6312 175.173 16.3866 176.311 15.3438C177.482 14.2673 178.855 13.4264 180.428 12.8209C182.001 12.2154 183.708 11.9126 185.549 11.9126C187.791 11.9126 189.766 12.3331 191.473 13.1741C193.18 13.9814 194.502 15.1251 195.439 16.6052C196.41 18.0517 196.895 19.7505 196.895 21.7015V39.9674H190.67V35.2748L192.076 35.1739C191.373 36.3513 190.536 37.3436 189.565 38.1509C188.595 38.9246 187.49 39.5301 186.252 39.9674C185.013 40.3711 183.641 40.5729 182.135 40.5729ZM202.371 39.9674V12.5181H208.948V39.9674H202.371ZM202.371 9.44017V2.37601H208.948V9.44017H202.371Z" fill="#1F2937"/>
<defs>
<filter id="filter0_d_8059_852" x="9.05991e-06" y="6.55651e-05" width="46.4712" height="46.4792" filterUnits="userSpaceOnUse" color-interpolation-filters="sRGB">
<feFlood flood-opacity="0" result="BackgroundImageFix"/>
<feColorMatrix in="SourceAlpha" type="matrix" values="0 0 0 0 0 0 0 0 0 0 0 0 0 0 0 0 0 0 127 0" result="hardAlpha"/>
<feOffset dy="2.07952"/>
<feGaussianBlur stdDeviation="2.07952"/>
<feComposite in2="hardAlpha" operator="out"/>
<feColorMatrix type="matrix" values="0 0 0 0 0.145098 0 0 0 0 0.388235 0 0 0 0 0.921569 0 0 0 0.24 0"/>
<feBlend mode="normal" in2="BackgroundImageFix" result="effect1_dropShadow_8059_852"/>
<feBlend mode="normal" in="SourceGraphic" in2="effect1_dropShadow_8059_852" result="shape"/>
</filter>
<linearGradient id="paint0_linear_8059_852" x1="23.1734" y1="2.27686" x2="23.1734" y2="40.1756" gradientUnits="userSpaceOnUse">
<stop stop-color="#2563EB"/>
<stop offset="1" stop-color="#2563EB" stop-opacity="0"/>
</linearGradient>
</defs>
</svg>
