<svg width="156" height="50" viewBox="0 0 156 50" fill="none" xmlns="http://www.w3.org/2000/svg">
<path d="M0 38.1969V0.605501H6.82794V32.1419H22.8435V38.1969H0ZM27.4087 49.2978C26.6723 49.2978 25.9527 49.2305 25.2498 49.0959C24.5469 48.995 23.911 48.7932 23.342 48.4904V42.9905C23.7771 43.0914 24.2959 43.1923 24.8984 43.2932C25.5343 43.3941 26.12 43.4446 26.6556 43.4446C28.1617 43.4446 29.2495 43.0914 29.9189 42.385C30.6218 41.7122 31.241 40.8039 31.7765 39.6602L33.5839 35.4217L33.4835 40.9721L21.5848 10.7476H28.6638L36.9979 33.0502H34.4876L42.7715 10.7476H49.9007L38.002 40.9721C37.2991 42.7214 36.4457 44.2183 35.4415 45.4629C34.4374 46.7076 33.266 47.6495 31.9272 48.2886C30.6218 48.9614 29.1156 49.2978 27.4087 49.2978ZM56.0729 38.1969V16.6512H51.2531V10.7476H56.0729V9.83937C56.0729 7.75376 56.4913 5.98772 57.328 4.54125C58.1982 3.06114 59.4032 1.93424 60.9428 1.16054C62.4825 0.386848 64.3066 0 66.4152 0C66.8169 0 67.252 0.0336378 67.7206 0.100914C68.2226 0.134555 68.641 0.185014 68.9757 0.25229V5.95408C68.641 5.8868 68.323 5.85316 68.0218 5.85316C67.754 5.81952 67.503 5.80271 67.2687 5.80271C65.796 5.80271 64.658 6.13909 63.8547 6.81187C63.0514 7.45101 62.6498 8.46018 62.6498 9.83937V10.7476H68.7247V16.6512H62.6498V38.1969H56.0729ZM84.872 38.8024C82.0605 38.8024 79.6004 38.1633 77.4918 36.885C75.3832 35.6067 73.7431 33.8743 72.5717 31.6878C71.4002 29.5013 70.8145 27.0793 70.8145 24.4218C70.8145 21.6634 71.4002 19.2246 72.5717 17.1054C73.7766 14.9525 75.3999 13.2537 77.4416 12.0091C79.5168 10.7644 81.8262 10.1421 84.37 10.1421C86.5121 10.1421 88.3864 10.4953 89.993 11.2017C91.633 11.9082 93.0221 12.8837 94.16 14.1283C95.298 15.373 96.1683 16.8026 96.7707 18.4173C97.3732 19.9983 97.6744 21.7139 97.6744 23.564C97.6744 24.035 97.641 24.5227 97.574 25.0273C97.5406 25.5319 97.4569 25.9692 97.323 26.3392H76.2367V21.2934H93.6078L90.495 23.6649C90.7963 22.1176 90.7126 20.7384 90.244 19.5274C89.8089 18.3164 89.0726 17.3577 88.035 16.6512C87.0309 15.9448 85.8092 15.5916 84.37 15.5916C82.9977 15.5916 81.776 15.9448 80.705 16.6512C79.6339 17.324 78.8139 18.3332 78.2449 19.6787C77.7094 20.9907 77.5085 22.5885 77.6424 24.4723C77.5085 26.1542 77.7261 27.6511 78.2951 28.9631C78.8976 30.2413 79.7678 31.2337 80.9058 31.9401C82.0773 32.6465 83.4161 32.9997 84.9222 32.9997C86.4284 32.9997 87.7003 32.6802 88.7379 32.041C89.8089 31.4019 90.6457 30.5441 91.2481 29.4676L96.5699 32.0915C96.0344 33.4034 95.1976 34.5639 94.0596 35.5731C92.9216 36.5823 91.5661 37.3728 89.993 37.9446C88.4534 38.5165 86.7464 38.8024 84.872 38.8024ZM105.17 38.1969V31.1328H111.797V38.1969H105.17ZM128.714 38.8024C126.806 38.8024 125.149 38.4829 123.743 37.8437C122.337 37.2046 121.25 36.2963 120.48 35.119C119.71 33.908 119.325 32.512 119.325 30.9309C119.325 29.4172 119.66 28.0716 120.329 26.8943C120.999 25.6833 122.036 24.6741 123.442 23.8668C124.848 23.0594 126.622 22.4876 128.764 22.1512L137.7 20.6879V25.7337L130.019 27.0456C128.714 27.2811 127.743 27.7016 127.107 28.3071C126.471 28.9126 126.153 29.7031 126.153 30.6786C126.153 31.6205 126.505 32.3774 127.207 32.9493C127.944 33.4875 128.847 33.7566 129.919 33.7566C131.291 33.7566 132.496 33.4707 133.533 32.8988C134.604 32.2933 135.424 31.4692 135.993 30.4264C136.596 29.3836 136.897 28.2398 136.897 26.9952V19.931C136.897 18.7537 136.429 17.7781 135.491 17.0044C134.588 16.1971 133.383 15.7934 131.877 15.7934C130.471 15.7934 129.216 16.1803 128.111 16.954C127.04 17.694 126.254 18.6864 125.751 19.931L120.379 17.3072C120.915 15.8607 121.752 14.6161 122.89 13.5733C124.061 12.4968 125.434 11.6559 127.007 11.0504C128.58 10.4449 130.287 10.1421 132.128 10.1421C134.37 10.1421 136.345 10.5626 138.052 11.4036C139.759 12.2109 141.081 13.3546 142.018 14.8347C142.989 16.2812 143.474 17.98 143.474 19.931V38.1969H137.249V33.5043L138.654 33.4034C137.951 34.5808 137.115 35.5731 136.144 36.3804C135.173 37.1541 134.069 37.7596 132.83 38.1969C131.592 38.6006 130.22 38.8024 128.714 38.8024ZM148.95 38.1969V10.7476H155.526V38.1969H148.95ZM148.95 7.66966V0.605501H155.526V7.66966H148.95Z" fill="#1F2937"/>
</svg>
