<svg width="47" height="47" viewBox="0 0 47 47" fill="none" xmlns="http://www.w3.org/2000/svg">
<g filter="url(#filter0_d_8059_853)">
<path d="M42.3122 16.818H31.7847C29.4592 16.818 27.5738 14.9327 27.5738 12.6071V2.07959H19.1519V12.6071C19.1519 14.554 19.5923 16.3981 20.379 18.0451C18.732 17.2584 16.8878 16.818 14.9409 16.818H4.41345V25.2399H14.9409C17.2665 25.2399 19.1519 27.1253 19.1519 29.4509V39.9784H27.5738V29.4509C27.5738 27.504 27.1334 25.6598 26.3467 24.0128C27.9937 24.7995 29.8378 25.2399 31.7847 25.2399H42.3122V16.818Z" fill="#2563EB"/>
<path d="M42.1228 17.0334V16.952H42.0415H31.5592C29.2885 16.952 27.4477 15.1112 27.4477 12.8405V2.35819V2.27686H27.3663H18.9806H18.8992V2.35819V12.8405C18.8992 14.7117 19.3053 16.4884 20.0341 18.0869C18.4356 17.3581 16.6589 16.952 14.7877 16.952H4.30539H4.22406V17.0334V25.4191V25.5004H4.30539H14.7877C17.0584 25.5004 18.8992 27.3413 18.8992 29.612V40.0943V40.1756H18.9806H27.3663H27.4477V40.0943V29.612C27.4477 27.7408 27.0416 25.9641 26.3128 24.3656C27.9113 25.0944 29.688 25.5004 31.5592 25.5004H42.0415H42.1228V25.4191V17.0334Z" stroke="url(#paint0_linear_8059_853)" stroke-width="0.12997"/>
</g>
<defs>
<filter id="filter0_d_8059_853" x="9.05991e-06" y="6.55651e-05" width="46.4712" height="46.4792" filterUnits="userSpaceOnUse" color-interpolation-filters="sRGB">
<feFlood flood-opacity="0" result="BackgroundImageFix"/>
<feColorMatrix in="SourceAlpha" type="matrix" values="0 0 0 0 0 0 0 0 0 0 0 0 0 0 0 0 0 0 127 0" result="hardAlpha"/>
<feOffset dy="2.07952"/>
<feGaussianBlur stdDeviation="2.07952"/>
<feComposite in2="hardAlpha" operator="out"/>
<feColorMatrix type="matrix" values="0 0 0 0 0.145098 0 0 0 0 0.388235 0 0 0 0 0.921569 0 0 0 0.24 0"/>
<feBlend mode="normal" in2="BackgroundImageFix" result="effect1_dropShadow_8059_853"/>
<feBlend mode="normal" in="SourceGraphic" in2="effect1_dropShadow_8059_853" result="shape"/>
</filter>
<linearGradient id="paint0_linear_8059_853" x1="23.1734" y1="2.27686" x2="23.1734" y2="40.1756" gradientUnits="userSpaceOnUse">
<stop stop-color="#2563EB"/>
<stop offset="1" stop-color="#2563EB" stop-opacity="0"/>
</linearGradient>
</defs>
</svg>
